<svg width="168" height="178" viewBox="0 0 168 178" fill="none" xmlns="http://www.w3.org/2000/svg">
<path d="M138.052 46.1981L137.333 44.9592C131.269 34.5035 120.305 28.2023 108.746 28.9641C107.258 29.0625 105.778 29.2755 104.318 29.6014C93.8079 31.9545 84.6653 40.2814 80.8752 50.9187C78.6442 57.1843 78.0226 64.3933 73.7924 69.3666C68.2853 75.8351 58.9378 76.038 50.7192 75.7746C42.5007 75.5111 33.1464 75.7354 27.6697 82.2289C24.2357 86.2979 23.1471 92.0829 23.4226 97.5369C24.1551 111.962 33.7613 124.86 45.9783 131.268C58.1952 137.676 72.5794 138.253 85.9623 135.433C104.691 131.485 122.506 120.634 133.211 103.877C143.916 87.1203 146.617 64.2829 138.052 46.1981Z" fill="#EBEBEB"/>
<path d="M129.36 47.5937C129.364 47.5517 129.371 47.5101 129.38 47.4691C129.397 47.3801 129.42 47.259 129.454 47.1131L129.743 45.7175C130.002 44.5036 130.378 42.7556 130.838 40.5947C131.776 36.2622 133.073 30.2707 134.507 23.6562L134.571 23.3572L134.635 23.6562C134.662 23.7737 134.689 23.9019 134.716 24.0122C136.144 30.7335 137.437 36.8282 138.375 41.2248L139.467 46.4438C139.594 47.0561 139.692 47.5331 139.759 47.8678L139.83 48.2238C139.839 48.266 139.846 48.3088 139.85 48.3519C139.85 48.3519 139.85 48.3092 139.816 48.2273L139.732 47.8713C139.658 47.5403 139.554 47.0632 139.416 46.4473L138.284 41.2391C137.336 36.8318 136.029 30.7549 134.588 24.0371C134.561 23.909 134.534 23.7808 134.507 23.6598H134.635C133.187 30.2849 131.877 36.2622 130.939 40.5911C130.459 42.7485 130.072 44.5071 129.803 45.7069C129.669 46.3049 129.561 46.7749 129.488 47.0953C129.451 47.2483 129.424 47.3658 129.404 47.4513C129.383 47.5367 129.36 47.5937 129.36 47.5937Z" fill="#263238"/>
<path d="M129.36 52.6239V48.3733H140.068V52.6239C140.069 53.2741 139.948 53.9179 139.714 54.5187C139.479 55.1195 139.135 55.6654 138.701 56.1253C138.268 56.5851 137.753 56.95 137.186 57.1989C136.619 57.4478 136.011 57.5759 135.398 57.5759H134.034C132.794 57.5759 131.605 57.0542 130.729 56.1255C129.852 55.1968 129.36 53.9373 129.36 52.6239Z" fill="#455A64"/>
<path d="M129.36 48.3733C129.406 48.4278 129.447 48.4875 129.481 48.5513L129.817 49.0782L130.996 51.0291L134.847 57.494L134.874 57.5368H134.736C136.191 55.002 137.508 52.7094 138.472 51.0362L139.615 49.0782C139.746 48.8539 139.853 48.6795 139.93 48.5478C139.964 48.4847 140.004 48.4251 140.048 48.3698C140.024 48.4374 139.992 48.5019 139.954 48.562L139.658 49.1031L138.549 51.086C137.599 52.7664 136.292 55.0661 134.853 57.608L134.8 57.7041L134.743 57.608L134.716 57.5617L130.895 51.0754L129.753 49.1031C129.625 48.8753 129.521 48.6973 129.447 48.562C129.414 48.5013 129.385 48.4383 129.36 48.3733Z" fill="#263238"/>
<path d="M135.764 23.61C135.764 23.855 135.696 24.0945 135.567 24.2983C135.439 24.502 135.256 24.6608 135.043 24.7545C134.829 24.8483 134.594 24.8728 134.367 24.825C134.14 24.7772 133.932 24.6593 133.768 24.486C133.605 24.3127 133.493 24.092 133.448 23.8517C133.403 23.6113 133.426 23.3622 133.515 23.1359C133.603 22.9095 133.753 22.716 133.945 22.5799C134.138 22.4438 134.364 22.3711 134.595 22.3711C134.905 22.3711 135.203 22.5016 135.422 22.734C135.641 22.9663 135.764 23.2814 135.764 23.61Z" fill="#263238"/>
<path d="M134.595 2.52051C134.632 2.52051 134.662 7.29447 134.662 13.2005C134.662 19.1065 134.632 23.852 134.595 23.852C134.558 23.852 134.531 19.0816 134.531 13.1934C134.531 7.30515 134.558 2.52051 134.595 2.52051Z" fill="#263238"/>
<path d="M135.203 58.028C135.203 58.1329 135.174 58.2355 135.119 58.3227C135.064 58.4099 134.986 58.4779 134.894 58.5181C134.803 58.5582 134.702 58.5687 134.605 58.5482C134.508 58.5278 134.419 58.4773 134.349 58.4031C134.279 58.3289 134.231 58.2344 134.212 58.1315C134.192 58.0286 134.202 57.9219 134.24 57.825C134.278 57.7281 134.342 57.6452 134.425 57.587C134.507 57.5287 134.604 57.4976 134.703 57.4976C134.836 57.4976 134.963 57.5534 135.057 57.6529C135.151 57.7524 135.203 57.8873 135.203 58.028Z" fill="#263238"/>
<path d="M134.481 58.2345L134.561 58.1918C134.42 58.2884 134.3 58.4177 134.213 58.57C134.125 58.7222 134.07 58.8935 134.054 59.0711C134.025 59.4298 134.054 59.7911 134.141 60.1391C134.161 60.2495 134.218 60.3847 134.323 60.3776C134.427 60.3705 134.464 60.253 134.481 60.1533C134.515 59.9429 134.52 59.7283 134.497 59.5161C134.485 59.7881 134.568 60.0555 134.729 60.2673C134.759 60.3064 134.806 60.3491 134.853 60.3349C134.901 60.3207 134.917 60.2673 134.931 60.2174C134.976 60.0396 135 59.8568 135.005 59.6727C135.017 59.8344 135.073 59.9889 135.166 60.1177C135.19 60.1482 135.22 60.1731 135.253 60.1909C135.287 60.2087 135.323 60.2191 135.361 60.2215C135.398 60.2238 135.436 60.218 135.471 60.2045C135.506 60.1909 135.538 60.1699 135.566 60.1427C135.617 60.0489 135.631 59.9378 135.606 59.8329C135.521 59.1978 135.28 58.5974 134.907 58.0921" fill="#263238"/>
<path d="M130.032 48.3733C130.032 48.3733 125.221 42.4957 125.755 42.2821C126.289 42.0685 130.566 45.3259 130.566 45.3259C130.566 45.3259 126.89 36.6182 127.626 35.9809C128.362 35.3437 132.236 43.699 132.236 43.699C132.236 43.699 131.635 31.5203 132.236 31.3814C132.838 31.2426 135.042 43.5566 135.042 43.5566C135.042 43.5566 138.318 32.2999 139.252 32.2999C140.186 32.2999 138.244 43.133 138.244 43.133C138.244 43.133 142.118 36.1945 142.719 37.1166C143.321 38.0386 139.981 45.5395 139.981 45.5395C139.981 45.5395 144.86 41.2213 145.058 41.7873C145.256 42.3533 139.776 48.3733 139.776 48.3733H130.032Z" fill="#375E7B"/>
<path d="M129.36 39.5161C129.394 39.5161 130.247 41.4385 131.265 43.845C132.283 46.2516 133.086 48.2131 133.053 48.2309C133.019 48.2487 132.166 46.3085 131.144 43.902C130.123 41.4954 129.316 39.5374 129.36 39.5161Z" fill="#263238"/>
<path d="M133.237 40.6054C133.274 40.6054 133.415 42.3106 133.553 44.4217C133.691 46.5328 133.775 48.2452 133.738 48.2452C133.701 48.2452 133.56 46.5399 133.422 44.4289C133.284 42.3178 133.2 40.609 133.237 40.6054Z" fill="#263238"/>
<path d="M138.597 35.1515C138.597 35.1515 138.597 35.2013 138.57 35.2903L138.462 35.6784C138.362 36.0344 138.227 36.5114 138.063 37.1024C137.727 38.2985 137.266 39.9504 136.803 41.8016C136.339 43.6528 135.953 45.326 135.684 46.5435L135.364 47.9853C135.331 48.1419 135.301 48.2701 135.277 48.3769C135.267 48.4232 135.254 48.4684 135.237 48.5122C135.237 48.5122 135.237 48.4623 135.237 48.3698C135.237 48.2772 135.277 48.1312 135.301 47.9746C135.361 47.6186 135.455 47.1309 135.58 46.5221C135.825 45.2975 136.198 43.61 136.661 41.766C137.125 39.9219 137.596 38.2629 137.958 37.0739C138.14 36.4758 138.294 36.0059 138.402 35.6499L138.53 35.269C138.549 35.2281 138.572 35.1888 138.597 35.1515Z" fill="#263238"/>
<path d="M140.915 41.4278C140.945 41.4491 140.008 42.9337 138.818 44.7421C137.629 46.5506 136.641 47.996 136.614 47.9746C136.587 47.9533 137.522 46.4687 138.711 44.6603C139.9 42.8518 140.885 41.4064 140.915 41.4278Z" fill="#263238"/>
<path d="M131.645 48.2487C131.492 48.1626 131.35 48.0548 131.225 47.9283C130.905 47.6475 130.598 47.3492 130.307 47.0348C130.017 46.7196 129.744 46.3881 129.488 46.0415C129.37 45.9052 129.272 45.7517 129.195 45.5858C129.226 45.5609 129.726 46.2017 130.402 46.9351C131.077 47.6684 131.668 48.2167 131.645 48.2487Z" fill="#263238"/>
<path d="M134.568 45.924C134.667 46.3194 134.724 46.7255 134.736 47.1344C134.795 47.5395 134.808 47.9506 134.776 48.3591C134.677 47.9636 134.62 47.5576 134.605 47.1487C134.548 46.7433 134.536 46.3324 134.568 45.924Z" fill="#263238"/>
<path d="M140.055 51.022C139.92 51.066 139.782 51.0958 139.642 51.111C139.376 51.1644 138.97 51.2284 138.506 51.2961C137.25 51.4823 135.986 51.6011 134.719 51.6521C133.451 51.7004 132.182 51.6432 130.922 51.4812C130.439 51.4171 130.052 51.3495 129.787 51.289C129.647 51.2653 129.509 51.2307 129.374 51.1857C129.515 51.1883 129.655 51.205 129.794 51.2356C130.062 51.2783 130.466 51.3317 130.933 51.3851C132.19 51.516 133.454 51.5576 134.716 51.5097C136.194 51.4563 137.528 51.3103 138.493 51.1964L139.635 51.054C139.774 51.0304 139.914 51.0197 140.055 51.022Z" fill="white"/>
<path d="M140.055 52.2893C139.919 52.329 139.781 52.3587 139.642 52.3783C139.376 52.4282 138.97 52.4922 138.506 52.5634C137.25 52.7512 135.986 52.87 134.719 52.9194C133.452 52.9705 132.182 52.9145 130.922 52.7521C130.439 52.6845 130.052 52.6204 129.787 52.5599C129.647 52.5364 129.508 52.5006 129.374 52.4531C129.514 52.4602 129.655 52.4769 129.794 52.5029C130.062 52.5492 130.466 52.599 130.933 52.6524C132.189 52.7865 133.454 52.8293 134.716 52.7806C136.194 52.7272 137.528 52.5812 138.493 52.4637L139.635 52.3249C139.774 52.3002 139.914 52.2882 140.055 52.2893Z" fill="white"/>
<path d="M61.3104 63.489L60.1445 66.4652C60.4155 67.1423 60.6193 67.8474 60.7527 68.5692C60.8098 69.2562 60.2823 72.179 60.2823 72.179C60.1203 72.1883 59.9603 72.1376 59.8297 72.0357C59.6992 71.9337 59.6061 71.7868 59.5666 71.6201C59.5634 71.0473 59.5994 70.475 59.6741 69.9077C59.6023 69.8091 59.5079 69.7314 59.3999 69.6821C59.2919 69.6329 59.1738 69.6135 59.0568 69.626C58.9398 69.6385 58.8277 69.6823 58.7312 69.7534C58.6346 69.8245 58.5567 69.9205 58.5048 70.0323C58.1688 70.7443 57.7858 71.5845 57.7186 71.6806C57.6514 71.7767 57.7656 72.8625 57.8732 73.66C57.8903 73.7674 57.8733 73.8777 57.8247 73.9738C57.7762 74.0698 57.699 74.146 57.6051 74.1904C57.5112 74.2349 57.4061 74.245 57.3062 74.2192C57.2063 74.1934 57.1174 74.1332 57.0533 74.048C57.025 74.0129 57.0074 73.9694 57.0029 73.9234C57.0029 73.9234 56.5628 74.6069 56.1293 73.3502C56.1293 73.3502 55.2557 72.8803 55.2356 72.1114C55.2356 72.1114 54.4392 71.1644 54.3317 70.5984C54.2242 70.0323 56.0487 66.6112 56.0487 66.6112L58.2932 61.6984L61.3104 63.489Z" fill="#FFBE9D"/>
<path d="M57.4026 69.6087C57.2441 69.7642 57.1102 69.9457 57.0061 70.1463C56.7033 70.604 56.5064 71.1309 56.4315 71.6842C56.4007 72.2441 56.506 72.803 56.7373 73.3076C56.8087 73.5228 56.9119 73.7247 57.043 73.9056C56.9965 73.6847 56.9301 73.4689 56.8448 73.2613C56.6562 72.7668 56.5713 72.2347 56.5962 71.702C56.6738 71.1745 56.8472 70.6679 57.1069 70.2103C57.2251 70.0214 57.3243 69.8197 57.4026 69.6087Z" fill="#EB996E"/>
<path d="M56.5121 69.3986C56.4953 69.3986 56.3206 69.5446 56.1257 69.8721C56.0116 70.0636 55.9105 70.2634 55.8233 70.4702C55.7071 70.7277 55.6409 71.0074 55.6284 71.2925C55.6414 71.5709 55.6842 71.8468 55.7561 72.1149C55.8132 72.3392 55.867 72.5563 55.9174 72.7628C55.9569 72.9625 56.0225 73.1554 56.1123 73.336C56.1121 73.128 56.0862 72.9209 56.035 72.7201C56.0047 72.535 55.9611 72.3107 55.9107 72.0651C55.849 71.806 55.8108 71.5414 55.7964 71.2747C55.8112 71.0133 55.8692 70.7566 55.9678 70.5165C56.0551 70.2886 56.1492 70.0857 56.2299 69.9184C56.3911 69.6015 56.5289 69.42 56.5121 69.3986Z" fill="#EB996E"/>
<path d="M55.4674 69.2492C55.4069 69.2171 55.1314 69.8472 54.8559 70.6304C54.8163 70.7442 54.8059 70.867 54.8256 70.9864C54.8256 71.0897 54.8525 71.1858 54.8693 71.2784C54.9023 71.4401 54.9484 71.5985 55.0071 71.7518C55.1079 72.0117 55.2188 72.1506 55.2356 72.1363C55.2092 71.9903 55.1698 71.8473 55.118 71.7091C55.0773 71.5569 55.0447 71.4024 55.0205 71.2463C55.0205 71.1609 54.9936 71.0683 54.9869 70.9722C54.9754 70.8836 54.9834 70.7934 55.0104 70.7088C55.1549 70.3136 55.2692 69.9576 55.3464 69.6942C55.4035 69.5515 55.4441 69.4021 55.4674 69.2492Z" fill="#EB996E"/>
<path d="M108.475 56.2089L109.647 54.9415C109.726 54.8361 109.834 54.76 109.956 54.7243C110.178 54.6852 110.37 54.9237 110.38 55.1587C110.37 55.3964 110.289 55.6247 110.148 55.8101C110.01 55.9947 109.91 56.2083 109.856 56.4367" fill="#FFBE9D"/>
<path d="M119.862 45.6143L113.669 57.0063L102.087 57.0953C102.074 56.8125 102.165 56.5352 102.34 56.3215C102.515 56.1079 102.762 55.9743 103.028 55.9489L113.162 55.7318L118.427 46.1661C118.796 45.4932 119.173 45.3508 119.862 45.6214V45.6143Z" fill="#263238"/>
<path d="M109.472 57.0277C109.529 57.0277 105.813 57.0277 106.022 57.0882C106.042 57.1309 106.059 57.1736 106.075 57.2164L106.559 59.4663C107.396 59.4663 109.805 58.7934 109.805 58.7934C110.232 58.5287 110.624 58.2056 110.971 57.8322V57.0206L109.472 57.0277Z" fill="#FFBE9D"/>
<path d="M106.196 57.0384L97.3863 56.6503L93.314 46.4758L88.9863 53.044L92.4706 59.6834C92.8741 60.4509 93.4713 61.0842 94.1953 61.5124C94.9193 61.9406 95.7415 62.1468 96.5699 62.1078L106.838 60.8618L106.196 57.0384Z" fill="#375E7B"/>
<path d="M107.547 104.557L108.219 111.125C108.219 111.125 114.684 112.14 114.912 113.329L103.011 115.654L101.556 105.465L107.547 104.557Z" fill="#375E7B"/>
<g opacity="0.6">
<path opacity="0.6" d="M104.449 111.15C104.339 111.205 104.252 111.3 104.204 111.418C104.157 111.537 104.152 111.669 104.19 111.791C104.238 111.91 104.327 112.005 104.439 112.057C104.551 112.109 104.677 112.113 104.792 112.069C104.908 112.01 105 111.908 105.049 111.781C105.099 111.655 105.103 111.514 105.061 111.385C104.999 111.267 104.896 111.178 104.774 111.138C104.651 111.099 104.519 111.111 104.405 111.172" fill="white"/>
</g>
<g opacity="0.6">
<path opacity="0.6" d="M103.021 115.654L102.874 114.628L114.439 112.806C114.572 112.849 114.693 112.926 114.791 113.031C114.889 113.136 114.961 113.266 115 113.407L103.021 115.654Z" fill="white"/>
</g>
<path d="M108.414 111.033C108.414 111.093 108.132 111.168 107.87 111.41C107.608 111.652 107.493 111.937 107.436 111.923C107.379 111.909 107.416 111.535 107.735 111.246C108.055 110.958 108.417 110.972 108.414 111.033Z" fill="#263238"/>
<path d="M109.745 111.389C109.765 111.446 109.526 111.592 109.365 111.884C109.204 112.176 109.183 112.46 109.123 112.468C109.062 112.475 108.982 112.129 109.19 111.756C109.398 111.382 109.734 111.328 109.745 111.389Z" fill="#263238"/>
<path d="M110.679 112.87C110.625 112.891 110.501 112.596 110.605 112.233C110.709 111.869 110.964 111.691 110.995 111.741C111.025 111.791 110.884 111.994 110.803 112.293C110.722 112.592 110.736 112.852 110.679 112.87Z" fill="#263238"/>
<path d="M108.102 109.552C108.085 109.612 107.806 109.552 107.477 109.644C107.147 109.737 106.909 109.869 106.868 109.822C106.828 109.776 107.05 109.513 107.436 109.431C107.823 109.349 108.122 109.499 108.102 109.552Z" fill="#263238"/>
<g opacity="0.3">
<path opacity="0.3" d="M107.682 105.86L107.802 107.028L101.912 107.882L101.731 106.654L107.682 105.86Z" fill="black"/>
</g>
<path d="M107.94 108.224C107.752 108.31 107.545 108.341 107.342 108.313C107.115 108.306 106.889 108.27 106.67 108.206C106.543 108.169 106.42 108.122 106.3 108.064C106.228 108.035 106.159 107.994 106.099 107.943C106.054 107.905 106.023 107.853 106.009 107.794C105.996 107.736 106.001 107.674 106.025 107.619C106.049 107.571 106.083 107.53 106.124 107.499C106.166 107.468 106.213 107.446 106.263 107.437C106.339 107.425 106.416 107.425 106.492 107.437C106.625 107.452 106.756 107.478 106.885 107.516C107.1 107.581 107.304 107.682 107.49 107.815C107.806 108.046 107.933 108.263 107.913 108.277C107.893 108.292 107.728 108.128 107.416 107.946C107.232 107.842 107.037 107.763 106.835 107.711C106.716 107.681 106.596 107.661 106.475 107.651C106.344 107.651 106.236 107.651 106.213 107.715C106.189 107.779 106.213 107.751 106.236 107.786C106.281 107.824 106.331 107.854 106.384 107.875C106.493 107.93 106.606 107.978 106.72 108.018C106.919 108.087 107.124 108.135 107.332 108.164C107.536 108.165 107.739 108.186 107.94 108.224Z" fill="#263238"/>
<path d="M107.877 108.331C107.856 108.331 107.712 108.139 107.635 107.74C107.596 107.504 107.596 107.263 107.635 107.028C107.654 106.888 107.686 106.751 107.732 106.618C107.753 106.53 107.795 106.449 107.854 106.383C107.912 106.317 107.986 106.268 108.068 106.241C108.122 106.234 108.176 106.243 108.225 106.268C108.274 106.292 108.315 106.331 108.344 106.38C108.385 106.448 108.416 106.523 108.438 106.601C108.477 106.74 108.497 106.886 108.495 107.031C108.494 107.274 108.438 107.512 108.33 107.726C108.142 108.082 107.907 108.203 107.9 108.181C108.01 108.014 108.11 107.839 108.199 107.658C108.278 107.46 108.315 107.246 108.307 107.031C108.302 106.91 108.282 106.791 108.246 106.675C108.209 106.544 108.145 106.44 108.098 106.462C108.051 106.483 107.954 106.586 107.917 106.704C107.875 106.82 107.841 106.939 107.816 107.06C107.778 107.275 107.769 107.494 107.789 107.711C107.813 108.096 107.907 108.317 107.877 108.331Z" fill="#263238"/>
<path d="M58.0172 108.224L52.2246 110.677C52.2246 110.677 53.0478 117.537 52.0196 118.099L46.7041 106.576L55.5779 102.361L58.0172 108.224Z" fill="#375E7B"/>
<g opacity="0.6">
<path opacity="0.6" d="M51.1931 106.825C51.1124 106.723 50.9983 106.657 50.8736 106.64C50.749 106.624 50.623 106.658 50.5211 106.736C50.426 106.817 50.3638 106.933 50.3475 107.061C50.3312 107.189 50.3621 107.319 50.4338 107.423C50.5179 107.526 50.6352 107.593 50.763 107.61C50.8909 107.627 51.0202 107.594 51.1259 107.516C51.21 107.418 51.2566 107.291 51.2566 107.16C51.2566 107.028 51.21 106.901 51.1259 106.804" fill="white"/>
</g>
<g opacity="0.6">
<path opacity="0.6" d="M46.7041 106.576L47.5979 106.152L52.3657 117.48C52.3585 117.624 52.3184 117.764 52.2487 117.888C52.1791 118.012 52.082 118.117 51.9659 118.192L46.7041 106.576Z" fill="white"/>
</g>
<path d="M52.3624 110.841C52.3053 110.866 52.1641 110.588 51.8718 110.388C51.5795 110.189 51.2905 110.146 51.2905 110.082C51.2905 110.018 51.6265 109.958 51.9861 110.207C52.3456 110.456 52.4161 110.83 52.3624 110.841Z" fill="#263238"/>
<path d="M52.3962 112.297C52.3492 112.332 52.1509 112.129 51.8418 112.04C51.5327 111.951 51.2672 112.012 51.2471 111.951C51.2269 111.891 51.5159 111.716 51.8989 111.83C52.282 111.944 52.4466 112.272 52.3962 112.297Z" fill="#263238"/>
<path d="M51.2971 113.646C51.2635 113.6 51.4987 113.393 51.8583 113.4C52.2178 113.407 52.4429 113.621 52.4093 113.667C52.3757 113.714 52.1472 113.621 51.8549 113.617C51.5626 113.614 51.324 113.699 51.2971 113.646Z" fill="#263238"/>
<path d="M53.6221 110.125C53.5617 110.125 53.5281 109.83 53.3735 109.513C53.2189 109.196 53.014 108.993 53.0375 108.943C53.061 108.893 53.3735 109.043 53.5449 109.413C53.7162 109.783 53.6759 110.136 53.6221 110.125Z" fill="#263238"/>
<g opacity="0.3">
<path opacity="0.3" d="M56.8683 108.708L55.8368 109.146L53.4814 103.361L54.3954 102.923L56.8683 108.708Z" fill="black"/>
</g>
<path d="M54.7679 109.609C54.6405 109.439 54.5571 109.236 54.526 109.021C54.474 108.788 54.448 108.549 54.4487 108.309C54.4496 108.17 54.4585 108.031 54.4756 107.893C54.4823 107.811 54.5016 107.73 54.5327 107.654C54.5547 107.598 54.5938 107.552 54.6437 107.522C54.6937 107.492 54.7517 107.481 54.8083 107.491C54.8579 107.503 54.9042 107.527 54.9438 107.561C54.9834 107.595 55.0152 107.638 55.0367 107.686C55.0703 107.759 55.0919 107.837 55.1006 107.918C55.123 108.057 55.1342 108.197 55.1342 108.338C55.1335 108.58 55.0972 108.82 55.0267 109.05C54.9792 109.263 54.8728 109.457 54.7209 109.605C54.6907 109.588 54.8049 109.377 54.8855 109.007C54.9318 108.792 54.9521 108.572 54.946 108.352C54.9429 108.224 54.9283 108.096 54.9023 107.971C54.8822 107.832 54.8385 107.726 54.7747 107.718C54.7108 107.711 54.7411 107.718 54.7175 107.758C54.6963 107.815 54.6827 107.875 54.6772 107.936C54.6559 108.064 54.6424 108.194 54.6369 108.324C54.628 108.545 54.6393 108.767 54.6705 108.986C54.7174 109.191 54.7499 109.399 54.7679 109.609Z" fill="#263238"/>
<path d="M54.6742 109.57C54.6574 109.57 54.8018 109.349 55.1446 109.164C55.3463 109.059 55.5632 108.99 55.7863 108.961C55.918 108.945 56.0511 108.945 56.1828 108.961C56.2691 108.958 56.3545 108.979 56.431 109.022C56.5075 109.064 56.5724 109.126 56.6196 109.203C56.6401 109.256 56.6463 109.313 56.6374 109.369C56.6284 109.425 56.6048 109.477 56.5692 109.52C56.5169 109.58 56.457 109.633 56.3911 109.677C56.2759 109.754 56.1501 109.813 56.0182 109.851C55.799 109.916 55.5681 109.922 55.3462 109.869C54.9631 109.773 54.7985 109.566 54.8153 109.552C54.9972 109.617 55.1823 109.671 55.3697 109.716C55.5716 109.745 55.7772 109.725 55.9711 109.659C56.083 109.621 56.1894 109.568 56.287 109.499C56.3945 109.424 56.4718 109.335 56.4382 109.292C56.4052 109.252 56.3643 109.221 56.3183 109.2C56.2724 109.179 56.2227 109.169 56.1727 109.171C56.052 109.159 55.9305 109.159 55.8098 109.171C55.605 109.19 55.4037 109.239 55.2118 109.317C54.8724 109.442 54.6943 109.598 54.6742 109.57Z" fill="#263238"/>
<path d="M97.6118 24.621C96.7046 24.0265 95.4412 24.6779 94.4803 24.1831C93.8956 23.8841 93.563 23.2326 93.0926 22.7591C92.7259 22.3908 92.2832 22.118 91.7998 21.9623C91.3163 21.8066 90.8053 21.7722 90.3072 21.862C89.3764 22.072 88.7044 22.428 88.3449 23.3643C87.6964 22.6879 86.1744 23.3643 85.499 24.208C84.8237 25.0517 84.6725 26.1126 84.6725 27.2304C84.65 29.161 84.9832 31.0777 85.6536 32.873C85.7141 33.0332 85.8249 33.2291 85.9896 33.1899C86.1542 33.1507 86.1643 33.0475 86.208 32.9407C86.5439 31.9992 86.7696 31.0176 86.88 30.0179C86.9901 29.0146 87.2919 28.0456 87.767 27.1699C88.2844 26.3262 89.1748 25.6747 90.119 25.7459C90.8217 25.8366 91.4721 26.1856 91.9569 26.732C92.4609 27.2482 92.8641 27.8641 93.3278 28.4195C93.7663 29.0035 94.3473 29.4492 95.0078 29.7082C95.3398 29.832 95.6983 29.8521 96.0408 29.7663C96.3833 29.6805 96.6953 29.4923 96.9398 29.224C97.39 28.6544 97.296 27.6398 96.6677 27.3052C96.9823 27.3605 97.3054 27.2983 97.5816 27.1294C97.8579 26.9604 98.0703 26.6951 98.1825 26.3788C98.2947 26.0624 98.2998 25.7146 98.197 25.3947C98.0941 25.0747 97.8897 24.8025 97.6185 24.6245L97.6118 24.621Z" fill="#263238"/>
<path d="M90.3842 40.6054L90.8042 38.5014C90.8042 38.5014 93.519 38.6972 94.1406 35.9275C94.443 34.589 94.853 31.7801 95.1957 29.2347C95.3727 27.914 95.0742 26.5711 94.3595 25.4729C93.6449 24.3747 92.5664 23.6016 91.3384 23.3073L91.0864 23.2468C88.3211 22.7626 86.3824 24.9805 86.0094 27.9211L83.8792 39.1885C83.7076 40.0993 83.8829 41.045 84.367 41.8194C84.8511 42.5937 85.6046 43.1337 86.463 43.3216L86.3891 44.3896C88.1867 44.7777 90.0112 42.5028 90.3842 40.6054Z" fill="#FFBE9D"/>
<path d="M90.8144 38.5014C89.5985 38.2362 88.4849 37.5929 87.6157 36.6537C87.6157 36.6537 87.9954 38.8467 90.6666 39.2205L90.8144 38.5014Z" fill="#EB996E"/>
<path d="M94.2348 31.2105C94.2129 31.3138 94.1542 31.4041 94.0709 31.4626C93.9876 31.521 93.8861 31.5429 93.7879 31.5238C93.7394 31.516 93.6928 31.4981 93.651 31.471C93.6091 31.444 93.5727 31.4084 93.5439 31.3663C93.5152 31.3243 93.4946 31.2765 93.4834 31.2259C93.4722 31.1754 93.4706 31.1229 93.4787 31.0717C93.5006 30.9684 93.5593 30.878 93.6426 30.8196C93.7259 30.7612 93.8274 30.7393 93.9256 30.7584C93.9741 30.7662 94.0207 30.7841 94.0626 30.8111C94.1044 30.8382 94.1408 30.8738 94.1696 30.9158C94.1984 30.9579 94.2189 31.0056 94.2301 31.0562C94.2413 31.1068 94.2429 31.1593 94.2348 31.2105Z" fill="#263238"/>
<path d="M94.3491 30.4558C94.292 30.4985 94.0534 30.2066 93.6502 30.0998C93.247 29.993 92.9077 30.1461 92.8741 30.0998C92.8405 30.0535 92.9245 29.9894 93.0757 29.9218C93.2772 29.8355 93.4988 29.8169 93.7107 29.8684C93.9226 29.922 94.1124 30.0469 94.2517 30.2244C94.3558 30.3347 94.376 30.438 94.3491 30.4558Z" fill="#263238"/>
<path d="M90.344 30.3526C90.3237 30.456 90.2658 30.5469 90.1829 30.6055C90.0999 30.6642 89.9984 30.6858 89.9005 30.6658C89.852 30.6585 89.8054 30.641 89.7634 30.6143C89.7214 30.5877 89.6848 30.5525 89.6557 30.5108C89.6267 30.4691 89.6057 30.4216 89.5941 30.3712C89.5824 30.3209 89.5804 30.2685 89.588 30.2173C89.5988 30.1647 89.6192 30.1148 89.6482 30.0706C89.6771 30.0263 89.7141 29.9886 89.7568 29.9595C89.7996 29.9304 89.8473 29.9105 89.8974 29.901C89.9474 29.8915 89.9987 29.8925 90.0483 29.904C90.1431 29.9231 90.2271 29.9807 90.2824 30.0645C90.3376 30.1483 90.3597 30.2517 90.344 30.3526Z" fill="#263238"/>
<path d="M90.3842 29.5907C90.3271 29.6299 90.0886 29.3415 89.6854 29.2347C89.2822 29.1279 88.9428 29.281 88.9092 29.2347C88.8756 29.1885 88.9596 29.1244 89.1108 29.0532C89.3128 28.9686 89.5343 28.9512 89.7458 29.0033C89.9577 29.057 90.1475 29.1819 90.2868 29.3593C90.3842 29.4697 90.3842 29.5729 90.3842 29.5907Z" fill="#263238"/>
<path d="M91.1567 33.108C91.3811 33.0892 91.6069 33.1 91.8287 33.1401C91.9363 33.1401 92.0371 33.1401 92.0707 33.0867C92.1061 32.971 92.1061 32.8464 92.0707 32.7307C92.0303 32.4459 91.9867 32.1433 91.943 31.83C91.8112 31.0589 91.7371 30.278 91.7212 29.4946C91.9142 30.2518 92.0479 31.0246 92.1211 31.8051C92.158 32.1184 92.1983 32.421 92.2319 32.7093C92.2693 32.8565 92.2562 33.0129 92.195 33.1508C92.1719 33.1851 92.1417 33.2135 92.1068 33.2338C92.0719 33.2542 92.0332 33.2659 91.9934 33.2682C91.9331 33.2761 91.8722 33.2761 91.8119 33.2682C91.588 33.2445 91.3678 33.1907 91.1567 33.108Z" fill="#263238"/>
<path d="M89.9105 33.108C89.9777 33.108 89.8769 33.5815 90.1826 34.0016C90.4884 34.4217 90.9622 34.4786 90.9521 34.5463C90.942 34.6139 90.8311 34.6104 90.6329 34.5676C90.3758 34.5111 90.146 34.3597 89.9844 34.1404C89.8284 33.9297 89.756 33.6628 89.7828 33.3964C89.8063 33.2113 89.8803 33.108 89.9105 33.108Z" fill="#263238"/>
<path d="M90.8781 27.412C90.8109 27.5188 90.4211 27.3657 89.9373 27.3159C89.4534 27.2661 89.0402 27.3159 88.9998 27.1877C88.9797 27.1308 89.0704 27.0382 89.2485 26.9635C89.4837 26.8752 89.7348 26.8446 89.9827 26.8743C90.2307 26.9039 90.4691 26.9928 90.6798 27.1343C90.8378 27.2483 90.905 27.3622 90.8781 27.412Z" fill="#263238"/>
<path d="M94.4633 29.192C94.3726 29.2739 94.1273 29.1066 93.7913 29.0212C93.4553 28.9357 93.1596 28.9393 93.1193 28.8218C93.1025 28.7648 93.1664 28.6794 93.3108 28.6189C93.4998 28.5485 93.7043 28.5393 93.8982 28.5926C94.0921 28.6459 94.2666 28.7591 94.3995 28.9179C94.4868 29.039 94.5036 29.1458 94.4633 29.192Z" fill="#263238"/>
<path d="M85.7942 30.0286C85.7505 30.0002 84.1142 29.0354 83.7782 30.9471C83.4422 32.8588 85.3137 32.8375 85.3271 32.7805C85.3406 32.7236 85.7942 30.0286 85.7942 30.0286Z" fill="#FFBE9D"/>
<path d="M84.8942 31.9439C84.8942 31.9439 84.8572 31.9439 84.8001 31.9759C84.7194 31.9948 84.635 31.9795 84.5649 31.9332C84.4627 31.8313 84.3879 31.7024 84.3484 31.5598C84.3088 31.4171 84.3058 31.2658 84.3398 31.1215C84.3638 30.9562 84.4236 30.7991 84.5145 30.6623C84.5416 30.6054 84.5816 30.5565 84.6308 30.5199C84.68 30.4832 84.737 30.46 84.7967 30.4523C84.8351 30.4488 84.8733 30.4602 84.9042 30.4845C84.9352 30.5087 84.9567 30.5441 84.9647 30.584C84.9647 30.6409 84.9647 30.6765 84.9647 30.6837C84.9647 30.6908 85.0084 30.6587 85.0084 30.5769C85.0071 30.5269 84.9892 30.479 84.958 30.4416C84.9374 30.4164 84.9122 30.3958 84.8839 30.3812C84.8556 30.3665 84.8248 30.358 84.7934 30.3561C84.7162 30.357 84.6406 30.3787 84.5735 30.4192C84.5065 30.4597 84.4503 30.5176 84.4103 30.5875C84.3043 30.7372 84.2339 30.9119 84.2054 31.0966C84.1662 31.2655 84.1747 31.4428 84.2296 31.6067C84.2845 31.7706 84.3836 31.9138 84.5145 32.0187C84.5605 32.0426 84.6111 32.055 84.6623 32.055C84.7136 32.055 84.7642 32.0426 84.8102 32.0187C84.8841 31.9902 84.9009 31.9475 84.8942 31.9439Z" fill="#EB996E"/>
<path d="M95.8812 28.7826C95.2667 28.8018 94.6567 28.6662 94.1012 28.3871C93.5457 28.108 93.0607 27.6933 92.6858 27.1771C92.1717 26.4651 91.8559 25.511 91.11 25.0411C90.8537 24.8981 90.5731 24.8109 90.2846 24.7846C89.996 24.7583 89.7055 24.7935 89.43 24.888C88.8792 25.079 88.3714 25.388 87.9381 25.7958C88.1431 27.3266 87.4677 28.8218 86.8092 30.2066C86.7514 30.3677 86.6451 30.5041 86.5068 30.5947C86.2581 30.7157 85.9692 30.5057 85.8348 30.2565C85.638 29.8368 85.5609 29.3655 85.613 28.9001C85.6411 27.8376 85.8696 26.7918 86.285 25.8243C86.7076 24.8642 87.3847 24.0553 88.2338 23.496C89.3303 22.8278 90.6283 22.6351 91.8559 22.9585C93.0761 23.2918 94.166 24.0243 94.9706 25.0517C95.3626 25.5089 95.642 26.0617 95.7837 26.6609" fill="#263238"/>
<path d="M98.2232 25.4718C98.2158 25.5281 98.1987 25.5824 98.1728 25.632C98.0964 25.7771 97.9789 25.8929 97.8368 25.9631C97.6112 26.0702 97.3592 26.0977 97.1178 26.0414C96.9669 26.0131 96.8194 25.9678 96.6776 25.9062C96.5166 25.8346 96.3763 25.7192 96.271 25.5715C96.2114 25.4884 96.1704 25.392 96.1512 25.2896C96.132 25.1872 96.1351 25.0815 96.1602 24.9806C96.1974 24.8733 96.2627 24.7796 96.3484 24.7102C96.434 24.6409 96.5366 24.5988 96.644 24.589C96.7568 24.5708 96.8721 24.5818 96.98 24.621C97.0903 24.6643 97.1862 24.741 97.2555 24.8417C97.3226 24.9443 97.3683 25.0609 97.3897 25.1836C97.4112 25.3063 97.4078 25.4325 97.3798 25.5537C97.3511 25.6837 97.2983 25.8063 97.2245 25.9145C97.1507 26.0227 97.0573 26.1142 96.9498 26.1838C96.7296 26.3297 96.4768 26.4108 96.2173 26.4188C95.6757 26.4214 95.149 26.2308 94.7221 25.8777C94.2997 25.537 93.9153 25.1464 93.5763 24.7136C93.2637 24.3166 92.9197 23.9486 92.5482 23.6135C92.2134 23.3193 91.8171 23.1142 91.3923 23.0154C91.0159 22.9389 90.6282 22.9511 90.2566 23.051C89.7169 23.2039 89.223 23.5005 88.8219 23.9126C88.7115 24.0248 88.6071 24.1437 88.5094 24.2686C88.4422 24.3504 88.4053 24.3967 88.4053 24.3932C88.4053 24.3896 88.4053 24.3932 88.4254 24.3576C88.4462 24.3211 88.4698 24.2866 88.496 24.2543C88.59 24.1294 88.691 24.0105 88.7984 23.8983C89.1957 23.469 89.6929 23.1583 90.2398 22.9976C90.6206 22.8919 91.0186 22.8761 91.4058 22.9514C91.8477 23.0529 92.2602 23.2653 92.6086 23.5708C92.9838 23.909 93.3322 24.2793 93.6502 24.678C93.9855 25.1053 94.3654 25.491 94.7826 25.8278C95.1929 26.16 95.6942 26.3412 96.2106 26.344C96.4545 26.3363 96.6922 26.2601 96.8994 26.1233C96.9976 26.0607 97.0832 25.9782 97.1512 25.8804C97.2193 25.7827 97.2684 25.6716 97.2958 25.5537C97.3237 25.4422 97.3286 25.3256 97.31 25.212C97.2915 25.0983 97.2499 24.9902 97.1883 24.8951C97.1266 24.8102 97.0444 24.7445 96.9504 24.705C96.8563 24.6655 96.7539 24.6537 96.6541 24.6708C96.56 24.6785 96.4699 24.7144 96.3944 24.7743C96.3188 24.8341 96.2609 24.9156 96.2274 25.009C96.2053 25.0988 96.2022 25.1926 96.2185 25.2837C96.2348 25.3748 96.2699 25.4609 96.3214 25.5359C96.4185 25.6761 96.5498 25.7856 96.7011 25.8528C96.838 25.9158 96.9812 25.9624 97.1278 25.9916C97.3597 26.0483 97.6024 26.0284 97.8234 25.9346C97.9623 25.8697 98.0794 25.7617 98.1594 25.6249C98.2098 25.5288 98.2165 25.4683 98.2232 25.4718Z" fill="#455A64"/>
<path d="M84.8303 25.7673C84.9943 25.8786 85.1675 25.9739 85.3477 26.0521C85.546 26.1197 85.755 26.1451 85.9626 26.1269C86.2181 26.1043 86.4693 26.0432 86.7085 25.9453C87.1416 25.7596 87.506 25.4298 87.7467 25.0055C87.8394 24.8248 87.9214 24.6381 87.992 24.4465C87.9915 24.5035 87.9824 24.5599 87.9651 24.6139C87.9279 24.7626 87.8737 24.9061 87.8039 25.0411C87.5692 25.4938 87.1924 25.8452 86.7387 26.0343C86.492 26.1384 86.2311 26.1997 85.9659 26.2159C85.7479 26.2286 85.5296 26.1947 85.3242 26.1162C85.1888 26.0589 85.062 25.9809 84.9479 25.8848C84.8672 25.8171 84.8269 25.7744 84.8303 25.7673Z" fill="#455A64"/>
<path d="M84.6187 27.1628C84.6187 27.1628 84.8236 27.2447 85.1663 27.3052C85.6113 27.3886 86.0694 27.3434 86.4921 27.1742C86.9149 27.0051 87.2868 26.7183 87.5687 26.344C87.7871 26.0592 87.8745 25.8456 87.8879 25.8527C87.9014 25.8598 87.8879 25.9097 87.8375 26.0058C87.7752 26.1392 87.7021 26.2666 87.6191 26.3867C87.3413 26.7854 86.961 27.0908 86.5236 27.2664C86.0862 27.4419 85.6103 27.4801 85.1529 27.3764C85.0157 27.3471 84.8817 27.303 84.7531 27.2447C84.7042 27.2256 84.6588 27.1979 84.6187 27.1628Z" fill="#455A64"/>
<path d="M88.6437 31.0865C88.6303 31.0865 88.6175 31.0809 88.608 31.0708C88.5986 31.0607 88.5933 31.0471 88.5933 31.0328C88.5933 31.0186 88.5986 31.0049 88.608 30.9949C88.6175 30.9848 88.6303 30.9791 88.6437 30.9791C88.65 30.979 88.6563 30.9804 88.6621 30.9832C88.6679 30.986 88.673 30.9901 88.6772 30.9952C88.6813 31.0003 88.6844 31.0063 88.6862 31.0128C88.6879 31.0193 88.6883 31.0261 88.6873 31.0328C88.6874 31.0459 88.6831 31.0586 88.675 31.0685C88.667 31.0784 88.6558 31.0848 88.6437 31.0865Z" fill="#EB996E"/>
<path d="M89.4534 31.0831C89.4298 31.0831 89.4097 31.0544 89.4097 31.0222C89.4095 31.0078 89.4141 30.9937 89.4227 30.9826C89.4313 30.9714 89.4434 30.9639 89.4567 30.9614C89.4704 30.964 89.4826 30.9722 89.4908 30.9842C89.4989 30.9962 89.5024 31.0111 89.5004 31.0258C89.5004 31.058 89.4802 31.0867 89.4534 31.0831Z" fill="#EB996E"/>
<path d="M89.9744 31.1936C89.9509 31.1936 89.9341 31.1542 89.9374 31.1113C89.9408 31.0683 89.9643 31.0361 89.9912 31.0361C90.0181 31.0361 90.0315 31.0755 90.0282 31.122C90.0248 31.1685 90.0013 31.1972 89.9744 31.1936Z" fill="#EB996E"/>
<path d="M88.9157 31.6844C88.8889 31.6844 88.8721 31.6593 88.8754 31.6414C88.8788 31.6235 88.9023 31.6163 88.9258 31.6414C88.9493 31.6665 88.9695 31.6665 88.9661 31.6808C88.9628 31.6951 88.9393 31.6844 88.9157 31.6844Z" fill="#EB996E"/>
<path d="M89.6586 31.6846C89.6458 31.682 89.6344 31.6742 89.6269 31.6628C89.6194 31.6515 89.6163 31.6375 89.6183 31.6238C89.6183 31.5915 89.6451 31.5701 89.672 31.5736C89.6842 31.577 89.6947 31.5851 89.7016 31.5964C89.7084 31.6077 89.7111 31.6213 89.709 31.6345C89.709 31.6414 89.7077 31.6482 89.7051 31.6545C89.7025 31.6609 89.6988 31.6666 89.694 31.6713C89.6893 31.676 89.6837 31.6796 89.6776 31.6819C89.6715 31.6842 89.665 31.6851 89.6586 31.6846Z" fill="#EB996E"/>
<path d="M93.4319 32.0976C93.4254 32.0972 93.419 32.0953 93.4132 32.0922C93.4074 32.089 93.4023 32.0846 93.3982 32.0792C93.3941 32.0738 93.3911 32.0676 93.3894 32.0609C93.3877 32.0542 93.3872 32.0472 93.3882 32.0403C93.3882 32.0267 93.393 32.0135 93.4017 32.0036C93.4105 31.9936 93.4224 31.9875 93.4352 31.9866C93.448 31.9884 93.4596 31.9954 93.4678 32.006C93.4759 32.0167 93.4799 32.0302 93.4789 32.0439C93.4789 32.0576 93.4741 32.0707 93.4654 32.0807C93.4566 32.0906 93.4446 32.0967 93.4319 32.0976Z" fill="#EB996E"/>
<path d="M93.9661 32.1724C93.953 32.1682 93.9418 32.1589 93.935 32.1462C93.9281 32.1336 93.926 32.1186 93.9292 32.1044C93.9292 32.0722 93.9561 32.0471 93.9796 32.0507C93.9933 32.0541 94.0053 32.0632 94.0128 32.0759C94.0204 32.0886 94.0229 32.104 94.0199 32.1187C94.019 32.1333 94.013 32.1469 94.003 32.1569C93.993 32.1669 93.9798 32.1724 93.9661 32.1724Z" fill="#EB996E"/>
<path d="M92.9646 32.0013C92.9533 32.0005 92.9426 31.9953 92.9346 31.9868C92.9265 31.9782 92.9217 31.9669 92.9209 31.9548C92.9226 31.9431 92.9284 31.9325 92.9371 31.9252C92.9458 31.9178 92.9569 31.9144 92.9679 31.9154C92.9735 31.9149 92.9791 31.9157 92.9844 31.9176C92.9897 31.9195 92.9945 31.9226 92.9986 31.9266C93.0028 31.9307 93.006 31.9356 93.0083 31.9411C93.0105 31.9465 93.0116 31.9524 93.0116 31.9584C93.0112 31.9645 93.0096 31.9705 93.007 31.9759C93.0044 31.9814 93.0009 31.9863 92.9965 31.9903C92.9921 31.9943 92.987 31.9973 92.9816 31.9992C92.9761 32.0011 92.9703 32.0018 92.9646 32.0013Z" fill="#EB996E"/>
<path d="M93.2366 32.6494C93.23 32.6504 93.2232 32.65 93.2168 32.6482C93.2103 32.6464 93.2042 32.6432 93.1989 32.6389C93.1936 32.6346 93.1891 32.6291 93.1858 32.623C93.1825 32.6168 93.1803 32.6099 93.1795 32.6029C93.1773 32.5892 93.1798 32.5751 93.1866 32.5632C93.1934 32.5514 93.204 32.5426 93.2164 32.5384C93.2293 32.5374 93.242 32.5416 93.252 32.5503C93.262 32.5589 93.2685 32.5714 93.2702 32.585C93.2734 32.5982 93.2717 32.6123 93.2654 32.6243C93.2592 32.6363 93.2489 32.6453 93.2366 32.6494Z" fill="#EB996E"/>
<path d="M93.704 32.6599C93.6988 32.6579 93.6941 32.6548 93.6901 32.6508C93.686 32.6468 93.6828 32.642 93.6806 32.6366C93.6784 32.6313 93.6773 32.6255 93.6772 32.6196C93.6772 32.6138 93.6783 32.608 93.6805 32.6026C93.6875 32.5941 93.697 32.5883 93.7075 32.5864C93.718 32.5844 93.7288 32.5862 93.7382 32.5916C93.7476 32.597 93.7549 32.6057 93.7591 32.6161C93.7633 32.6266 93.764 32.6382 93.7611 32.6491C93.7581 32.6539 93.7542 32.658 93.7496 32.6611C93.7451 32.6643 93.74 32.6664 93.7347 32.6674C93.7294 32.6684 93.7239 32.6683 93.7186 32.667C93.7133 32.6657 93.7084 32.6633 93.704 32.6599Z" fill="#EB996E"/>
<path d="M74.1654 76.9921L69.1489 94.4824L54.291 102.361L57.4965 110.267L78.4427 101.962L84.9813 80.6696L74.1654 76.9921Z" fill="#263238"/>
<path d="M76.1111 38.9713L62.5166 48.1134C61.8538 48.5592 61.3592 49.2368 61.1188 50.0287L56.855 63.9661L61.5422 65.7211L66.4881 52.688L78.7286 47.316L76.1111 38.9713Z" fill="#375E7B"/>
<path d="M90.7201 43.2505L91.1099 42.6809L90.4009 40.5128L88.479 43.5994L87.9649 41.9155L84.1077 37.049L82.4277 38.3484L76.1008 38.9714L76.1377 39.1565L74.9281 49.0497L74.1923 59.6763L72.7173 64.881L72.0957 65.593C71.9108 65.8031 71.7779 66.0583 71.7087 66.3359C71.6395 66.6136 71.6363 66.905 71.6992 67.1844L71.7429 67.3695L87.2728 72.7095L88.4757 70.7194L93.304 46.4865L90.7201 43.2505Z" fill="#375E7B"/>
<path d="M106.048 84.0481C105.891 82.4671 105.3 80.9695 104.349 79.7398C103.398 78.5101 102.128 77.602 100.696 77.1274L87.3601 72.6774L71.7529 67.3659C70.8699 69.4751 70.4715 71.7761 70.5903 74.0801C70.7785 77.3588 74.1587 80.4881 77.5388 81.4101L96.926 86.5899L100.582 106.882L108.279 106.23L106.048 84.0481Z" fill="#263238"/>
<path d="M97.0168 86.711C96.9316 86.7066 96.8471 86.6923 96.7648 86.6682L96.0559 86.5009C95.441 86.3514 94.554 86.12 93.4653 85.821C91.2813 85.2264 88.2876 84.3222 84.9376 83.4891C82.0792 82.7573 79.266 81.8394 76.5141 80.7408C75.4591 80.3172 74.6191 79.9398 74.0412 79.6728C73.7522 79.5411 73.5304 79.4272 73.3692 79.3524C73.2912 79.3185 73.2159 79.278 73.144 79.2314C73.226 79.253 73.3059 79.2828 73.3826 79.3204L74.0546 79.6087C74.6392 79.8579 75.486 80.2139 76.5444 80.6233C79.3076 81.6784 82.1229 82.5733 84.978 83.304C88.338 84.1335 91.3216 85.0591 93.4956 85.6857L96.0727 86.4226L96.7749 86.622C96.8575 86.6452 96.9384 86.6749 97.0168 86.711Z" fill="#455A64"/>
<path d="M98.9085 84.2759C98.7491 84.7939 98.4748 85.2638 98.1088 85.6465C97.7872 86.0712 97.3733 86.4071 96.9025 86.6255C96.8723 86.5792 97.4301 86.1733 97.9811 85.5219C98.5321 84.8704 98.8614 84.251 98.9085 84.2759Z" fill="#455A64"/>
<path d="M100.061 86.152C99.5897 86.4368 99.0659 86.6104 98.5255 86.6611C97.9932 86.773 97.4445 86.7633 96.916 86.6326C96.916 86.5756 97.6351 86.6112 98.4986 86.4795C99.3621 86.3478 100.044 86.0808 100.061 86.152Z" fill="#455A64"/>
<path d="M78.4292 69.6941C78.4292 69.6479 83.1332 71.1644 88.8721 73.0868C94.611 75.0092 99.2881 76.6041 99.2612 76.6468C99.2343 76.6896 94.5572 75.1766 88.8183 73.2542C83.0795 71.3317 78.4158 69.744 78.4292 69.6941Z" fill="#455A64"/>
<path d="M78.7252 46.3049C78.9604 45.9475 79.147 45.5569 79.2796 45.1444C79.4149 44.6948 79.5006 44.2301 79.535 43.7595C79.5846 43.1856 79.5517 42.6071 79.4375 42.0436C79.3074 41.4861 79.0669 40.9643 78.7319 40.5128C78.4556 40.1458 78.12 39.8336 77.7407 39.5908C77.3764 39.3821 76.9979 39.2024 76.6084 39.0532C76.7225 39.0565 76.8357 39.0769 76.9444 39.1137C77.2417 39.1946 77.5283 39.3142 77.7978 39.4697C78.204 39.7041 78.5634 40.0196 78.8562 40.3989C79.2129 40.8657 79.4677 41.4103 79.6022 41.9938C79.7249 42.5777 79.7556 43.1792 79.6929 43.7738C79.6511 44.2604 79.5495 44.7391 79.3905 45.1978C79.2902 45.5076 79.1439 45.7984 78.957 46.0593C78.8294 46.2337 78.7319 46.3121 78.7252 46.3049Z" fill="#263238"/>
<g opacity="0.3">
<path opacity="0.3" d="M74.928 49.0497C75.8184 48.8041 77.6564 47.7503 77.6564 47.7503C76.5509 50.8297 75.3615 54.5143 74.3232 57.6186C74.6256 54.7493 74.6256 51.9226 74.928 49.0497Z" fill="black"/>
</g>
<path d="M64.7172 50.9507C65.1187 51.1279 65.4754 51.4023 65.7588 51.7517C66.0825 52.0603 66.3324 52.4458 66.488 52.8767C66.4443 52.9052 66.1217 52.4104 65.6345 51.8835C65.1473 51.3566 64.687 50.997 64.7172 50.9507Z" fill="#263238"/>
<path d="M65.8125 49.0212C66.1721 49.5547 66.428 50.1587 66.5653 50.798C66.7026 51.4372 66.7185 52.0991 66.6122 52.7449C66.5732 52.1064 66.5014 51.4706 66.3971 50.8403C66.2338 50.2231 66.0386 49.6158 65.8125 49.0212Z" fill="#263238"/>
<path d="M72.6098 57.5118C72.6098 57.5652 72.6098 57.6079 72.5762 57.6079C72.5426 57.6079 72.546 57.5652 72.546 57.5118C72.546 57.4584 72.546 57.4193 72.5762 57.4193C72.6065 57.4193 72.6098 57.462 72.6098 57.5118Z" fill="#263238"/>
<path d="M88.4858 70.7087C88.4865 70.6366 88.4955 70.5649 88.5127 70.4951L88.627 69.8899C88.7378 69.3417 88.8857 68.5905 89.0705 67.6721L90.522 60.3563C91.0898 57.5083 91.6006 54.9308 91.9769 53.0369C92.165 52.122 92.3129 51.3708 92.4305 50.8226L92.5615 50.2209C92.5762 50.1509 92.5953 50.0819 92.6186 50.0145C92.621 50.0863 92.6142 50.1582 92.5985 50.2281C92.5716 50.3883 92.538 50.5841 92.4977 50.8368C92.4002 51.3886 92.2625 52.1433 92.0978 53.0654C91.7618 54.9415 91.2612 57.5367 90.6934 60.3954C90.1255 63.2541 89.5946 65.8351 89.1914 67.7005C88.9865 68.6333 88.8185 69.388 88.6942 69.9077C88.6337 70.1498 88.5866 70.3492 88.5497 70.5023C88.536 70.5735 88.5146 70.6428 88.4858 70.7087Z" fill="#263238"/>
<path d="M96.1397 59.363C96.1203 58.8324 96.2426 58.3068 96.4925 57.8465C96.6917 57.358 97.0151 56.9377 97.4266 56.6325C97.4669 56.6752 97.0032 57.1701 96.6504 57.9283C96.2976 58.6866 96.1934 59.3737 96.1397 59.363Z" fill="#263238"/>
<path d="M96.926 60.2281C96.7786 59.6183 96.7481 58.9833 96.8364 58.3608C96.9247 57.7384 97.13 57.141 97.4401 56.604C97.4905 56.6289 97.1478 57.3836 97.0134 58.384C96.954 58.9967 96.9248 59.6122 96.926 60.2281Z" fill="#263238"/>
<path d="M113.162 56.9991L110.598 57.0241L110.917 57.8856L113.142 57.3302L113.162 56.9991Z" fill="#FFBE9D"/>
<g opacity="0.3">
<path opacity="0.3" d="M91.2275 57.2839C91.2275 57.2839 92.9344 60.4452 92.9075 60.3633C93.0218 57.3445 93.0117 54.4644 92.3531 51.5239" fill="black"/>
</g>
<path d="M87.9718 42.008C87.9718 42.0258 87.74 42.2466 87.3502 42.6488C86.9604 43.0511 86.4262 43.6421 85.7273 44.2544L85.65 44.322L85.603 44.2295L84.8302 42.7129C84.2019 41.5061 83.6072 40.431 83.1737 39.6549L82.6563 38.7186C82.5862 38.608 82.5297 38.4884 82.4883 38.3626C82.5762 38.4555 82.6529 38.5595 82.7168 38.6723C82.8512 38.8788 83.0528 39.1814 83.2745 39.5623C83.7382 40.3242 84.3497 41.3922 84.978 42.6026C85.2569 43.1366 85.5156 43.6706 85.7441 44.1262L85.6198 44.0978C86.3153 43.5068 86.863 42.923 87.2796 42.5492C87.4902 42.3415 87.7224 42.1599 87.9718 42.008Z" fill="#263238"/>
<path d="M91.026 42.8481C90.975 42.9795 90.9022 43.1001 90.8109 43.2041C90.6631 43.4284 90.4246 43.731 90.1793 44.0977L90.0852 44.233L90.0382 44.0763C89.9407 43.7559 89.8399 43.4106 89.729 43.0475L89.5308 42.3355L89.6786 42.3675C89.3174 42.8751 88.9186 43.3513 88.4858 43.7916C88.7989 43.2484 89.1528 42.7329 89.5442 42.2501L89.6417 42.1183L89.6921 42.2821L89.897 42.9692C89.9978 43.3299 90.0953 43.6717 90.1894 43.9945L90.0482 43.9731C90.317 43.6171 90.5657 43.3216 90.737 43.1151C90.9084 42.9087 91.0092 42.8375 91.026 42.8481Z" fill="#263238"/>
<path d="M88.4859 43.756C88.3006 43.4926 88.1846 43.1818 88.1499 42.8553C88.0578 42.5503 88.0003 42.2348 87.9785 41.9155C88.1627 42.1782 88.2786 42.4875 88.3145 42.8126C88.4048 43.1193 88.4623 43.4357 88.4859 43.756Z" fill="#263238"/>
<path d="M85.8685 68.975C85.8685 68.975 86.0567 69.089 86.2045 69.4129C86.2979 69.6244 86.3447 69.8557 86.3411 70.0893C86.3376 70.3228 86.284 70.5524 86.1842 70.7607C86.0845 70.9689 85.9413 71.1504 85.7655 71.2913C85.5897 71.4322 85.3859 71.5288 85.1696 71.5738C84.9966 71.6327 84.8095 71.6238 84.6421 71.5489C84.6421 71.5204 84.8437 71.5489 85.1394 71.4492C85.3301 71.3935 85.5078 71.2962 85.6611 71.1635C85.8143 71.0308 85.9397 70.8657 86.0292 70.6787C86.1187 70.4917 86.1704 70.2869 86.1809 70.0775C86.1914 69.8682 86.1605 69.6588 86.0903 69.4628C85.9827 69.153 85.845 68.9964 85.8685 68.975Z" fill="#263238"/>
<path d="M88.9192 44.233C88.9274 44.3171 88.9274 44.4018 88.9192 44.4858C88.9192 44.6709 88.9192 44.913 88.8957 45.1978C88.8756 45.8279 88.8252 46.7393 88.7445 47.8642C88.59 50.1142 88.2909 53.2042 87.7936 56.6254C87.2964 60.0465 86.6916 63.0832 86.1943 65.2762C85.949 66.3762 85.734 67.2591 85.576 67.8679L85.3912 68.5799C85.3738 68.6633 85.3479 68.7445 85.314 68.822C85.3229 68.7379 85.3375 68.6546 85.3576 68.5727C85.3946 68.3912 85.4484 68.1562 85.5088 67.8607C85.65 67.2484 85.8448 66.3584 86.0767 65.2584C86.5404 63.0583 87.1216 60.0038 87.6223 56.6076C88.1229 53.2113 88.4354 50.1106 88.6303 47.8642C88.7244 46.7428 88.7916 45.8315 88.8352 45.2049C88.8588 44.9059 88.8756 44.6638 88.8924 44.4929C88.8921 44.4055 88.9011 44.3183 88.9192 44.233Z" fill="#263238"/>
<path d="M87.3235 68.8113C87.0592 68.9157 86.7818 68.9781 86.5003 68.9964C85.8308 69.0837 85.1538 69.0837 84.4843 68.9964C83.8109 68.9099 83.1499 68.7377 82.5153 68.4838C82.2479 68.3926 81.9943 68.2607 81.7627 68.0922C82.6549 68.415 83.5724 68.6533 84.5045 68.8042C85.442 68.896 86.3855 68.8983 87.3235 68.8113Z" fill="#263238"/>
<path d="M76.4035 66.7927C75.0626 66.4478 73.804 65.8113 72.7075 64.9237C72.7344 64.8774 73.5206 65.383 74.5421 65.8956C75.5635 66.4083 76.4203 66.7429 76.4035 66.7927Z" fill="#263238"/>
<path d="M69.9489 62.2217C69.9489 62.2751 69.9321 62.3143 69.9085 62.3143C69.885 62.3143 69.8716 62.2751 69.8716 62.2217C69.8716 62.1683 69.8884 62.1292 69.9085 62.1292C69.9287 62.1292 69.9489 62.1719 69.9489 62.2217Z" fill="#263238"/>
<path d="M69.3068 47.2804C69.2872 46.8286 69.3245 46.376 69.4177 45.9347C69.4568 45.4841 69.5529 45.041 69.7033 44.6175C69.727 45.0694 69.6897 45.5225 69.5924 45.9632C69.5533 46.4138 69.4572 46.8568 69.3068 47.2804Z" fill="white"/>
<path d="M75.1162 46.2444C74.8558 46.0856 74.6134 45.8957 74.3938 45.6784C74.0074 45.3615 73.6681 45.1337 73.6916 45.0839C73.9943 45.1545 74.2738 45.3093 74.5013 45.5324C74.9045 45.8599 75.1498 46.2124 75.1162 46.2444Z" fill="white"/>
<path d="M64.5528 49.338C64.298 49.2841 64.0573 49.1724 63.8472 49.0105C63.4809 48.7827 63.2054 48.5655 63.2289 48.5192C63.4842 48.5735 63.7251 48.6865 63.9345 48.8503C64.3008 49.0746 64.5763 49.2917 64.5528 49.338Z" fill="white"/>
<path d="M63.8031 53.845C63.4377 54.0641 63.0453 54.2282 62.6372 54.3328C62.2473 54.4946 61.8379 54.5977 61.4209 54.6389C61.7877 54.4237 62.1797 54.2609 62.5868 54.1548C62.9769 53.9928 63.3862 53.8886 63.8031 53.845Z" fill="white"/>
<path d="M60.9976 61.5062C60.6881 60.7454 60.5723 59.9119 60.6616 59.0889C60.7616 59.4826 60.8258 59.8856 60.8532 60.2922C60.9377 60.6911 60.9861 61.0976 60.9976 61.5062Z" fill="white"/>
<path d="M72.6939 49.2206C72.3027 49.4012 71.8981 49.5477 71.4843 49.6585C71.0891 49.8293 70.6811 49.965 70.2646 50.0643C70.9962 49.5748 71.8308 49.2849 72.6939 49.2206Z" fill="white"/>
<path d="M77.2973 41.6911C76.7807 41.6827 76.2667 41.6123 75.7651 41.4811C75.2522 41.4088 74.7484 41.2763 74.2632 41.0859C74.7811 41.0946 75.2963 41.1663 75.7987 41.2995C76.3104 41.3708 76.813 41.5021 77.2973 41.6911Z" fill="white"/>
<path d="M80.8857 41.8691C80.9183 41.4695 81.0101 41.0779 81.1579 40.7086C81.2478 40.3187 81.3952 39.9462 81.5947 39.605C81.5602 40.0042 81.4684 40.3956 81.3225 40.7655C81.2309 41.1548 81.0836 41.527 80.8857 41.8691Z" fill="white"/>
<path d="M84.0508 46.045C83.4199 45.5231 82.9154 44.8495 82.5791 44.0799C82.8629 44.3726 83.1184 44.6946 83.3418 45.0411C83.6104 45.3487 83.848 45.6852 84.0508 46.045Z" fill="white"/>
<path d="M80.6405 49.6691C80.5242 49.281 80.4631 48.8766 80.4591 48.4694C80.403 48.0657 80.403 47.6556 80.4591 47.2519C80.5784 47.6405 80.6396 48.0465 80.6405 48.4552C80.7008 48.8573 80.7008 49.267 80.6405 49.6691Z" fill="white"/>
<path d="M76.9674 51.6841C76.9372 51.7233 76.6314 51.4954 76.3156 51.175C75.9997 50.8546 75.7477 50.5627 75.7813 50.5271C75.8149 50.4915 76.1173 50.7193 76.4332 51.0362C76.749 51.353 77.001 51.6485 76.9674 51.6841Z" fill="white"/>
<path d="M78.819 54.3434C78.285 54.7136 77.6557 54.8989 77.0181 54.8739C77.304 54.7377 77.604 54.6374 77.9118 54.5748C78.2038 54.4574 78.5086 54.3797 78.819 54.3434Z" fill="white"/>
<path d="M85.2871 52.2394C84.9989 51.5076 84.9003 50.7076 85.0015 49.9219C85.0958 50.2991 85.1532 50.6856 85.1729 51.0753C85.2483 51.4582 85.2865 51.8483 85.2871 52.2394Z" fill="white"/>
<path d="M83.8994 57.316C83.6647 57.0304 83.4762 56.7056 83.3417 56.3548C83.1549 56.0312 83.0188 55.6778 82.9385 55.3082C83.1732 55.5937 83.3617 55.9185 83.4962 56.2694C83.683 56.593 83.8191 56.9464 83.8994 57.316Z" fill="white"/>
<path d="M78.8628 60.7478C78.9197 60.2881 79.0326 59.8382 79.1988 59.4093C79.3155 58.9603 79.4896 58.5303 79.7162 58.1312C79.6594 58.5909 79.5464 59.0409 79.3802 59.4698C79.2635 59.9188 79.0894 60.3488 78.8628 60.7478Z" fill="white"/>
<path d="M76.7526 63.6314C76.5849 63.3903 76.4628 63.1171 76.3931 62.8269C76.2716 62.5562 76.2052 62.2614 76.1982 61.9618C76.3677 62.2018 76.49 62.4754 76.5578 62.7663C76.6793 63.037 76.7457 63.3318 76.7526 63.6314Z" fill="white"/>
<path d="M84.1413 63.1081C83.8217 63.3863 83.4665 63.6152 83.0863 63.7881C82.731 64.0144 82.3476 64.1869 81.9473 64.3007C82.2691 64.0239 82.6252 63.7952 83.0057 63.6207C83.3599 63.3948 83.7421 63.2222 84.1413 63.1081Z" fill="white"/>
<path d="M79.427 67.4478C79.3204 67.2163 79.2674 66.9612 79.2725 66.7037C79.2355 66.2837 79.2422 65.9419 79.2926 65.9384C79.3995 66.171 79.4525 66.4273 79.4472 66.686C79.4842 67.1025 79.4775 67.4442 79.427 67.4478Z" fill="white"/>
<path d="M73.977 67.5474C73.94 67.5759 73.7149 67.2698 73.6174 66.8141C73.5303 66.5454 73.5362 66.2526 73.6342 65.9882C73.7079 66.2438 73.7596 66.5059 73.7888 66.7714C73.8728 67.0237 73.9357 67.2834 73.977 67.5474Z" fill="white"/>
<path d="M83.3281 69.6585C83.0692 69.8444 82.7797 69.9772 82.4746 70.0501C82.188 70.1792 81.8819 70.2527 81.5708 70.2673C81.8283 70.081 82.1167 69.9481 82.4209 69.8757C82.7086 69.7464 83.0159 69.6729 83.3281 69.6585Z" fill="white"/>
<path d="M87.3768 71.1252C87.3298 71.1252 87.2391 70.8476 87.1753 70.488C87.1114 70.1284 87.0946 69.8259 87.1416 69.8152C87.1887 69.8045 87.2794 70.0893 87.3466 70.4524C87.4138 70.8155 87.4272 71.1146 87.3768 71.1252Z" fill="white"/>
<path d="M87.8979 66.1412C87.7092 65.9192 87.5651 65.6588 87.4745 65.3758C87.3342 65.1189 87.245 64.8341 87.2124 64.5392C87.4006 64.7603 87.5446 65.0195 87.6358 65.3011C87.7764 65.5592 87.8656 65.8452 87.8979 66.1412Z" fill="white"/>
<path d="M89.4702 60.7016C89.497 60.7443 89.1846 60.9935 88.778 61.257C88.5454 61.4449 88.279 61.5806 87.9951 61.6557C88.19 61.4251 88.425 61.2366 88.6873 61.1003C88.9203 60.9131 89.1866 60.7774 89.4702 60.7016Z" fill="white"/>
<path d="M89.561 57.5794C89.3755 57.345 89.2525 57.0623 89.2048 56.7606C89.1042 56.4741 89.0798 56.1638 89.1343 55.8635C89.2486 56.1348 89.3288 56.4209 89.3728 56.7144C89.4735 56.9919 89.5369 57.2832 89.561 57.5794Z" fill="white"/>
<path d="M91.1704 50.4096C90.9323 50.7038 90.6536 50.9583 90.3438 51.1643C90.0652 51.4171 89.7512 51.6225 89.4131 51.7731C89.6495 51.4761 89.9284 51.2202 90.2397 51.0148C90.5162 50.76 90.8307 50.5555 91.1704 50.4096Z" fill="white"/>
<path d="M91.4626 48.1633C91.4357 48.2024 91.1266 48.0031 90.8477 47.6221C90.656 47.4127 90.5374 47.1401 90.5117 46.8496C90.5588 46.8283 90.7234 47.1558 90.9788 47.5082C91.2341 47.8607 91.4928 48.1205 91.4626 48.1633Z" fill="white"/>
<path d="M93.9253 53.0939C93.9033 52.7154 93.9384 52.3356 94.0295 51.9689C94.0653 51.5917 94.1571 51.2228 94.3016 50.876C94.326 51.2543 94.292 51.6343 94.2008 52.0009C94.165 52.3786 94.0719 52.7476 93.9253 53.0939Z" fill="white"/>
<path d="M95.4546 56.426C95.1384 56.3981 94.8297 56.3088 94.544 56.1626C94.2384 56.0741 93.9511 55.9256 93.6973 55.7247C94.0131 55.755 94.3214 55.8441 94.6078 55.9882C94.9126 56.0791 95.1994 56.2274 95.4546 56.426Z" fill="white"/>
<path d="M95.0614 61.3139C94.8637 61.0723 94.7109 60.7933 94.6112 60.4915C94.459 60.2145 94.3596 59.9084 94.3188 59.5908C94.6697 60.1086 94.922 60.6938 95.0614 61.3139Z" fill="white"/>
<path d="M100.128 58.5869C99.8896 58.9323 99.6232 59.2551 99.3319 59.5517C99.0827 59.8909 98.8061 60.2065 98.5054 60.4951C98.6693 60.0944 98.9056 59.7316 99.2009 59.4271C99.4545 59.0848 99.7697 58.7992 100.128 58.5869Z" fill="white"/>
<path d="M103.25 59.3452C102.97 59.1528 102.722 58.9121 102.517 58.6332C102.272 58.3906 102.067 58.1053 101.913 57.7895C102.442 58.2234 102.897 58.7509 103.257 59.3488L103.25 59.3452Z" fill="white"/>
<path d="M109.765 50.2138V48.2024H108.767L110.299 45.9276L111.831 48.2024H110.87V50.2138H109.765Z" fill="#375E7B"/>
<path d="M107.722 51.9297V50.5235H107.023L108.098 48.9322L109.17 50.5235H108.498V51.9297H107.722Z" fill="#375E7B"/>
<path d="M94.8967 106.401C94.8423 106.414 94.7874 106.423 94.732 106.43L94.2381 106.497C94.0197 106.519 93.7509 106.558 93.4351 106.618C93.1192 106.679 92.7631 106.732 92.3464 106.832C88.3992 107.708 84.7361 109.661 81.7188 112.496C80.3001 113.841 79.0501 115.374 77.9992 117.056C75.5522 120.978 74.2245 125.563 74.1756 130.264V130.577L74.0176 130.314C73.147 128.903 72.0509 127.663 70.7786 126.651C66.545 123.286 61.2261 122.051 56.7271 122.863L55.8938 123.048C55.7554 123.073 55.6194 123.111 55.4872 123.162L55.0874 123.297C54.8253 123.393 54.5532 123.461 54.3045 123.578L53.5519 123.934C53.3035 124.046 53.0612 124.172 52.8261 124.312L52.1239 124.707L51.4519 125.148C51.2311 125.289 51.018 125.442 50.8135 125.607C49.2838 126.787 47.9341 128.209 46.8117 129.823C45.8881 131.155 45.0997 132.587 44.4597 134.095L44.0666 135.066C43.949 135.38 43.8482 135.689 43.7474 135.985C43.5324 136.569 43.4114 137.124 43.2501 137.612C42.9948 138.605 42.82 139.392 42.7327 139.919C42.6856 140.179 42.6487 140.381 42.6218 140.524C42.5949 140.666 42.5781 140.73 42.5781 140.73C42.5833 140.66 42.5923 140.59 42.605 140.52C42.6252 140.378 42.6588 140.164 42.6991 139.912C42.8249 139.131 42.9875 138.357 43.1863 137.594C43.3274 137.099 43.4551 136.526 43.6668 135.953C43.7676 135.661 43.865 135.348 43.9826 135.031L44.3724 134.052C45.0096 132.531 45.7981 131.087 46.7244 129.744C47.8511 128.107 49.2114 126.666 50.7564 125.472C50.962 125.305 51.1762 125.151 51.3981 125.009L52.0701 124.557L52.7791 124.159C53.0154 124.015 53.26 123.888 53.5116 123.778L54.2709 123.422C54.5229 123.301 54.7984 123.233 55.0639 123.133L55.4671 122.998C55.6014 122.946 55.7397 122.907 55.8804 122.881L56.7237 122.692C61.2732 121.862 66.629 123.101 70.9063 126.501C72.1954 127.527 73.3053 128.783 74.1856 130.214L74.0277 130.26C74.0772 125.525 75.4204 120.907 77.8951 116.964C78.9547 115.273 80.2162 113.734 81.6482 112.386C82.8877 111.227 84.2392 110.21 85.6802 109.353C87.7583 108.123 90.0054 107.246 92.3397 106.754C92.7496 106.658 93.1159 106.604 93.4351 106.554C93.7543 106.505 94.0231 106.465 94.2415 106.448L94.7354 106.398C94.8396 106.401 94.8967 106.401 94.8967 106.401Z" fill="#263238"/>
<path d="M148.499 109.506H125.567V170.976H148.499V109.506Z" fill="#375E7B"/>
<g opacity="0.3">
<path opacity="0.3" d="M148.498 109.506H125.566V170.976H148.498V109.506Z" fill="black"/>
</g>
<path d="M142.894 109.506H119.962V170.976H142.894V109.506Z" fill="#375E7B"/>
<g opacity="0.4">
<path opacity="0.4" d="M130.513 134.109V137.509H129.901L128.302 135.444V137.509H127.569V134.109H128.184L129.78 136.174V134.109H130.513Z" fill="white"/>
<path opacity="0.4" d="M131.003 134.668C130.979 134.48 131.01 134.29 131.091 134.121C131.172 133.953 131.299 133.815 131.456 133.725C131.613 133.635 131.793 133.599 131.97 133.62C132.147 133.641 132.314 133.719 132.449 133.843C132.583 133.967 132.679 134.132 132.722 134.315C132.766 134.499 132.756 134.692 132.693 134.869C132.631 135.046 132.519 135.198 132.372 135.306C132.226 135.414 132.052 135.472 131.873 135.472C131.766 135.484 131.657 135.471 131.554 135.436C131.451 135.401 131.356 135.345 131.274 135.269C131.193 135.194 131.126 135.102 131.08 134.998C131.033 134.895 131.007 134.782 131.003 134.668ZM132.253 134.668C132.253 134.56 132.213 134.457 132.141 134.381C132.069 134.305 131.971 134.262 131.87 134.262C131.768 134.262 131.671 134.305 131.599 134.381C131.527 134.457 131.487 134.56 131.487 134.668C131.487 134.775 131.527 134.879 131.599 134.955C131.671 135.031 131.768 135.074 131.87 135.074C131.971 135.074 132.069 135.031 132.141 134.955C132.213 134.879 132.253 134.775 132.253 134.668Z" fill="white"/>
<path opacity="0.4" d="M135.909 136.793H135.388V137.505H134.662V136.793H132.935V136.263L134.447 134.109H135.227L133.825 136.152H134.686V135.515H135.388V136.152H135.909V136.793Z" fill="white"/>
</g>
<path d="M148.512 112.325C148.463 112.451 148.4 112.571 148.324 112.681L147.756 113.628C147.272 114.426 146.593 115.515 145.831 116.715C145.068 117.914 144.369 118.993 143.855 119.766C143.595 120.198 143.302 120.606 142.978 120.987C142.99 120.954 143.006 120.923 143.025 120.894L143.176 120.634C143.334 120.378 143.512 120.065 143.751 119.691C144.241 118.9 144.923 117.808 145.686 116.611C146.449 115.415 147.144 114.333 147.655 113.557L148.267 112.642C148.336 112.526 148.418 112.42 148.512 112.325Z" fill="#375E7B"/>
<path d="M148.512 123.397C148.463 123.523 148.4 123.642 148.324 123.753L147.756 124.7C147.272 125.497 146.593 126.586 145.831 127.786C145.068 128.986 144.369 130.061 143.855 130.837C143.595 131.269 143.302 131.678 142.978 132.058C142.991 132.025 143.007 131.992 143.025 131.962C143.072 131.884 143.123 131.802 143.176 131.702C143.334 131.449 143.512 131.133 143.751 130.762C144.241 129.968 144.923 128.879 145.686 127.683C146.449 126.487 147.144 125.405 147.655 124.628L148.267 123.714C148.336 123.598 148.418 123.492 148.512 123.397Z" fill="#375E7B"/>
<path d="M148.512 134.465C148.462 134.591 148.399 134.71 148.324 134.821L147.756 135.768C147.272 136.562 146.593 137.655 145.831 138.854C145.068 140.054 144.369 141.129 143.855 141.902C143.596 142.335 143.302 142.745 142.978 143.126C142.991 143.093 143.007 143.061 143.025 143.03L143.176 142.77L143.751 141.83C144.241 141.037 144.923 139.947 145.686 138.747C146.449 137.548 147.144 136.473 147.655 135.693L148.267 134.782C148.337 134.667 148.419 134.56 148.512 134.465Z" fill="#375E7B"/>
<path d="M148.512 145.536C148.462 145.662 148.399 145.782 148.324 145.892L147.756 146.839C147.272 147.633 146.593 148.726 145.831 149.922C145.068 151.118 144.369 152.201 143.855 152.973C143.596 153.406 143.303 153.815 142.978 154.194C142.992 154.163 143.008 154.132 143.025 154.102C143.072 154.023 143.123 153.938 143.176 153.842L143.751 152.902C144.241 152.108 144.923 151.019 145.686 149.819C146.449 148.619 147.144 147.541 147.655 146.765L148.267 145.85C148.336 145.735 148.419 145.63 148.512 145.536Z" fill="#375E7B"/>
<path d="M148.512 156.608C148.463 156.734 148.4 156.854 148.324 156.964L147.756 157.914C147.272 158.708 146.593 159.801 145.831 160.997C145.068 162.194 144.369 163.276 143.855 164.048C143.595 164.481 143.302 164.889 142.978 165.269C142.992 165.238 143.008 165.207 143.025 165.177L143.176 164.917C143.334 164.661 143.512 164.347 143.751 163.974C144.241 163.183 144.923 162.094 145.686 160.894C146.449 159.694 147.144 158.616 147.655 157.84L148.267 156.925C148.336 156.809 148.418 156.703 148.512 156.608Z" fill="#375E7B"/>
<path d="M148.512 167.676C148.214 168.312 147.865 168.92 147.467 169.492C147.117 170.098 146.718 170.67 146.274 171.204C146.573 170.568 146.924 169.96 147.323 169.388C147.67 168.781 148.069 168.208 148.512 167.676Z" fill="#375E7B"/>
<path d="M116.521 120.99H93.5894V170.976H116.521V120.99Z" fill="#375E7B"/>
<g opacity="0.3">
<path opacity="0.3" d="M116.521 120.99H93.5894V170.976H116.521V120.99Z" fill="black"/>
</g>
<path d="M110.917 120.99H87.9849V170.976H110.917V120.99Z" fill="#375E7B"/>
<g opacity="0.4">
<path opacity="0.4" d="M98.5553 140.698V144.127H97.9471L96.3477 142.044V144.127H95.6152V140.698H96.2268L97.8228 142.781V140.698H98.5553Z" fill="white"/>
<path opacity="0.4" d="M99.0458 141.261C99.0247 141.074 99.0575 140.886 99.1399 140.72C99.2223 140.554 99.3505 140.418 99.5073 140.331C99.6641 140.244 99.8423 140.209 100.018 140.232C100.194 140.254 100.359 140.333 100.492 140.457C100.624 140.581 100.718 140.745 100.761 140.928C100.804 141.11 100.793 141.301 100.731 141.477C100.668 141.652 100.557 141.804 100.411 141.911C100.266 142.018 100.093 142.075 99.916 142.076C99.8075 142.087 99.698 142.075 99.5943 142.039C99.4906 142.004 99.3949 141.946 99.3133 141.869C99.2316 141.793 99.1657 141.699 99.1197 141.595C99.0736 141.49 99.0485 141.376 99.0458 141.261ZM100.299 141.261C100.299 141.153 100.259 141.05 100.187 140.974C100.115 140.898 100.018 140.855 99.916 140.855C99.8144 140.855 99.717 140.898 99.6452 140.974C99.5733 141.05 99.533 141.153 99.533 141.261C99.533 141.368 99.5733 141.472 99.6452 141.548C99.717 141.624 99.8144 141.667 99.916 141.667C100.018 141.667 100.115 141.624 100.187 141.548C100.259 141.472 100.299 141.368 100.299 141.261Z" fill="white"/>
<path opacity="0.4" d="M103.437 143.076C103.437 143.657 103.021 144.184 102.093 144.184C101.661 144.195 101.236 144.071 100.87 143.828L101.159 143.222C101.426 143.425 101.748 143.532 102.076 143.528C102.446 143.528 102.674 143.368 102.674 143.087C102.674 142.806 102.496 142.667 102.076 142.667H101.74V142.144L102.412 141.346H101.048V140.709H103.293V141.225L102.57 142.105C102.805 142.118 103.025 142.227 103.187 142.407C103.348 142.588 103.438 142.828 103.437 143.076Z" fill="white"/>
</g>
<path d="M116.522 122.991C116.472 123.117 116.409 123.236 116.334 123.347L115.766 124.301C115.282 125.102 114.603 126.206 113.84 127.412C113.078 128.619 112.379 129.709 111.865 130.488C111.605 130.925 111.311 131.338 110.988 131.724C110.999 131.689 111.015 131.657 111.035 131.627C111.082 131.549 111.129 131.464 111.186 131.364L111.761 130.417C112.251 129.616 112.933 128.52 113.696 127.309C114.459 126.099 115.151 125.013 115.665 124.23L116.276 123.308C116.346 123.192 116.428 123.085 116.522 122.991Z" fill="#375E7B"/>
<path d="M116.522 134.155C116.472 134.281 116.409 134.4 116.334 134.511L115.766 135.465C115.282 136.27 114.603 137.37 113.84 138.577C113.078 139.783 112.379 140.873 111.865 141.652C111.606 142.09 111.312 142.503 110.988 142.888C110.999 142.853 111.015 142.821 111.035 142.792L111.186 142.532C111.341 142.272 111.522 141.955 111.761 141.581C112.251 140.78 112.933 139.684 113.696 138.473C114.459 137.263 115.151 136.177 115.665 135.394L116.276 134.472C116.346 134.356 116.428 134.25 116.522 134.155Z" fill="#375E7B"/>
<path d="M116.522 145.319C116.472 145.445 116.409 145.565 116.334 145.675L115.766 146.633C115.282 147.434 114.603 148.534 113.84 149.741C113.078 150.948 112.379 152.037 111.865 152.82C111.605 153.256 111.312 153.668 110.988 154.052C110.999 154.018 111.015 153.985 111.035 153.956L111.186 153.696C111.341 153.436 111.522 153.119 111.761 152.745C112.251 151.948 112.933 150.848 113.696 149.637C114.459 148.427 115.151 147.341 115.665 146.558L116.276 145.636C116.347 145.521 116.429 145.415 116.522 145.319Z" fill="#375E7B"/>
<path d="M116.522 156.483C116.472 156.609 116.409 156.729 116.334 156.839L115.766 157.797C115.282 158.598 114.603 159.698 113.84 160.908C113.078 162.119 112.379 163.205 111.865 163.984C111.605 164.42 111.312 164.832 110.988 165.216C110.999 165.182 111.015 165.149 111.035 165.12L111.186 164.86C111.341 164.604 111.522 164.287 111.761 163.91C112.251 163.112 112.933 162.012 113.696 160.805C114.459 159.598 115.151 158.505 115.665 157.722L116.276 156.8C116.347 156.685 116.429 156.579 116.522 156.483Z" fill="#375E7B"/>
<path d="M116.521 167.648C116.224 168.289 115.874 168.901 115.476 169.477C115.126 170.089 114.727 170.668 114.284 171.208C114.581 170.567 114.931 169.954 115.329 169.378C115.679 168.766 116.078 168.187 116.521 167.648Z" fill="#375E7B"/>
<path d="M84.3763 134.155H61.4443V170.976H84.3763V134.155Z" fill="#375E7B"/>
<g opacity="0.3">
<path opacity="0.3" d="M84.3763 134.155H61.4443V170.976H84.3763V134.155Z" fill="black"/>
</g>
<path d="M78.7718 134.155H55.8398V170.976H78.7718V134.155Z" fill="#375E7B"/>
<g opacity="0.4">
<path opacity="0.4" d="M66.4102 148.73V152.154H65.7986L64.1993 150.075V152.154H63.4668V148.73H64.0817L65.6777 150.809V148.73H66.4102Z" fill="white"/>
<path opacity="0.4" d="M66.9006 149.292C66.8781 149.105 66.9099 148.915 66.9919 148.747C67.0738 148.58 67.2021 148.442 67.3594 148.354C67.5168 148.265 67.6959 148.23 67.8729 148.252C68.0498 148.274 68.2162 148.353 68.35 148.477C68.4837 148.602 68.5784 148.767 68.6215 148.95C68.6645 149.133 68.6539 149.326 68.591 149.503C68.5281 149.679 68.416 149.831 68.2694 149.939C68.1229 150.046 67.949 150.104 67.7708 150.104C67.6626 150.115 67.5534 150.103 67.4499 150.067C67.3464 150.032 67.2509 149.975 67.1693 149.898C67.0876 149.822 67.0217 149.729 66.9755 149.625C66.9292 149.521 66.9038 149.407 66.9006 149.292ZM68.1505 149.292C68.1505 149.185 68.1102 149.081 68.0383 149.005C67.9665 148.929 67.8691 148.886 67.7675 148.886C67.6659 148.886 67.5685 148.929 67.4966 149.005C67.4248 149.081 67.3844 149.185 67.3844 149.292C67.3844 149.4 67.4248 149.503 67.4966 149.579C67.5685 149.655 67.6659 149.698 67.7675 149.698C67.8691 149.698 67.9665 149.655 68.0383 149.579C68.1102 149.503 68.1505 149.4 68.1505 149.292Z" fill="white"/>
<path opacity="0.4" d="M71.4136 151.51V152.154H68.9876V151.656L70.2275 150.406C70.5097 150.118 70.5635 149.944 70.5635 149.776C70.5635 149.506 70.3887 149.349 70.0494 149.349C69.9181 149.344 69.7877 149.373 69.6702 149.436C69.5528 149.498 69.452 149.591 69.3774 149.705L68.8364 149.331C68.9819 149.121 69.1746 148.953 69.3969 148.842C69.6193 148.73 69.8643 148.68 70.1099 148.694C70.8256 148.694 71.3027 149.086 71.3027 149.709C71.3027 150.04 71.2153 150.346 70.7651 150.777L70.0259 151.521L71.4136 151.51Z" fill="white"/>
</g>
<path d="M84.3728 134.155C84.3232 134.281 84.2601 134.4 84.1847 134.511C84.0335 134.771 83.8487 135.088 83.6202 135.465C83.133 136.27 82.4543 137.37 81.6916 138.577C80.9288 139.783 80.23 140.873 79.7159 141.652C79.4585 142.09 79.1663 142.503 78.8423 142.888C78.8423 142.888 78.8423 142.852 78.8893 142.792L79.0405 142.532C79.1951 142.273 79.3866 141.956 79.6151 141.581C80.1023 140.78 80.7844 139.684 81.5471 138.473C82.3098 137.263 83.0053 136.177 83.516 135.394L84.1309 134.472C84.1999 134.357 84.281 134.25 84.3728 134.155Z" fill="#375E7B"/>
<path d="M84.3728 145.319C84.3232 145.445 84.2601 145.565 84.1847 145.675L83.6202 146.633C83.133 147.434 82.4543 148.534 81.6916 149.741C80.9288 150.948 80.23 152.037 79.7159 152.82C79.4581 153.256 79.1658 153.668 78.8423 154.052C78.8423 154.052 78.8423 154.016 78.8893 153.956L79.0405 153.696C79.1951 153.435 79.3866 153.118 79.6151 152.745C80.1023 151.948 80.7844 150.848 81.5471 149.637C82.3098 148.427 83.0053 147.341 83.516 146.558L84.1309 145.636C84.2009 145.522 84.282 145.416 84.3728 145.319Z" fill="#375E7B"/>
<path d="M84.3728 156.483C84.3232 156.609 84.2601 156.729 84.1847 156.839L83.6202 157.797C83.133 158.598 82.4543 159.698 81.6916 160.908C80.9288 162.119 80.23 163.205 79.7159 163.984C79.4581 164.42 79.1658 164.832 78.8423 165.216C78.8423 165.216 78.8423 165.18 78.8893 165.12L79.0405 164.86L79.6151 163.91C80.1023 163.112 80.7844 162.012 81.5471 160.805C82.3098 159.598 83.0053 158.505 83.516 157.722L84.1309 156.8C84.2009 156.686 84.282 156.58 84.3728 156.483Z" fill="#375E7B"/>
<path d="M84.3731 167.648C84.0756 168.289 83.7259 168.901 83.3281 169.477C82.9785 170.089 82.5806 170.667 82.1387 171.208C82.4362 170.567 82.7858 169.954 83.1836 169.378C83.5333 168.766 83.9312 168.188 84.3731 167.648Z" fill="#375E7B"/>
<path d="M52.2279 145.319H29.2959V170.976H52.2279V145.319Z" fill="#375E7B"/>
<g opacity="0.3">
<path opacity="0.3" d="M52.2279 145.319H29.2959V170.976H52.2279V145.319Z" fill="black"/>
</g>
<path d="M46.6234 145.319H23.6914V170.976H46.6234V145.319Z" fill="#375E7B"/>
<g opacity="0.4">
<path opacity="0.4" d="M34.2723 156.191V159.616H33.6642L32.0648 157.537V159.616H31.3223V156.191H31.9203L33.5163 158.271V156.191H34.2723Z" fill="white"/>
<path opacity="0.4" d="M34.7526 156.754C34.7301 156.566 34.7621 156.376 34.8443 156.208C34.9266 156.04 35.0552 155.903 35.213 155.815C35.3708 155.727 35.5503 155.691 35.7274 155.714C35.9046 155.737 36.0711 155.816 36.2046 155.941C36.338 156.067 36.4322 156.233 36.4745 156.416C36.5168 156.6 36.5052 156.793 36.4413 156.969C36.3773 157.146 36.2641 157.298 36.1166 157.404C35.9692 157.511 35.7946 157.567 35.6162 157.566C35.5085 157.576 35.4 157.563 35.2973 157.527C35.1946 157.491 35.0999 157.433 35.019 157.357C34.9381 157.281 34.8728 157.189 34.827 157.085C34.7812 156.981 34.7559 156.868 34.7526 156.754ZM36.0026 156.754C36.0026 156.674 35.98 156.595 35.9378 156.528C35.8955 156.461 35.8355 156.409 35.7653 156.379C35.6951 156.348 35.6179 156.34 35.5435 156.356C35.4692 156.372 35.4009 156.411 35.3475 156.468C35.294 156.525 35.2578 156.598 35.2434 156.677C35.229 156.756 35.2371 156.838 35.2666 156.912C35.2961 156.986 35.3457 157.049 35.4092 157.093C35.4726 157.137 35.547 157.16 35.6229 157.16C35.6738 157.163 35.7248 157.155 35.7724 157.135C35.8201 157.116 35.8633 157.086 35.8992 157.048C35.9351 157.009 35.9629 156.963 35.9807 156.913C35.9985 156.862 36.006 156.808 36.0026 156.754Z" fill="white"/>
<path opacity="0.4" d="M38.126 156.191V159.616H37.3835V156.825H36.7417V156.191H38.126Z" fill="white"/>
</g>
<path d="M52.2278 145.319C52.1781 145.445 52.115 145.565 52.0396 145.675L51.4718 146.633C50.9879 147.434 50.3059 148.534 49.5465 149.741C48.7871 150.948 48.0849 152.037 47.5708 152.82C47.3114 153.256 47.018 153.668 46.6938 154.052C46.7048 154.018 46.7207 153.985 46.7409 153.956L46.8921 153.696C47.0466 153.436 47.2281 153.119 47.4667 152.745C47.9572 151.948 48.6393 150.848 49.3987 149.637C50.158 148.427 50.8569 147.341 51.371 146.558L51.9825 145.636C52.0529 145.521 52.1351 145.415 52.2278 145.319Z" fill="#375E7B"/>
<path d="M52.2278 156.483C52.1781 156.609 52.115 156.729 52.0396 156.839L51.4718 157.797C50.9879 158.598 50.3059 159.698 49.5465 160.908C48.7871 162.119 48.0849 163.205 47.5708 163.984C47.3114 164.42 47.018 164.832 46.6938 165.216C46.7048 165.182 46.7207 165.149 46.7409 165.12L46.8921 164.86C47.0466 164.604 47.2281 164.287 47.4667 163.91C47.9572 163.112 48.6393 162.012 49.3987 160.805C50.158 159.598 50.8569 158.505 51.371 157.722L51.9825 156.8C52.0529 156.685 52.1351 156.579 52.2278 156.483Z" fill="#375E7B"/>
<path d="M52.228 167.648C51.9289 168.288 51.5794 168.9 51.183 169.477C50.8329 170.089 50.4339 170.668 49.9902 171.208C50.2877 170.567 50.6374 169.954 51.0352 169.378C51.3853 168.766 51.7844 168.187 52.228 167.648Z" fill="#375E7B"/>
<path d="M159.304 170.98C159.304 171.03 125.587 171.072 84.0035 171.072C42.4201 171.072 8.6958 171.03 8.6958 170.98C8.6958 170.93 42.4067 170.88 84.0001 170.88C125.594 170.88 159.304 170.926 159.304 170.98Z" fill="#263238"/>
</svg>
